<svg width="50" height="50" viewBox="0 0 50 50" fill="none" xmlns="http://www.w3.org/2000/svg">
<path fill-rule="evenodd" clip-rule="evenodd" d="M25 43C34.9411 43 43 34.9411 43 25C43 15.0589 34.9411 7 25 7C15.0589 7 7 15.0589 7 25C7 34.9411 15.0589 43 25 43ZM25 45C36.0457 45 45 36.0457 45 25C45 13.9543 36.0457 5 25 5C13.9543 5 5 13.9543 5 25C5 36.0457 13.9543 45 25 45Z" fill="#999999"/>
<path fill-rule="evenodd" clip-rule="evenodd" d="M25 35C25.8284 35 26.5 34.3284 26.5 33.5C26.5 32.6716 25.8284 32 25 32C24.1716 32 23.5 32.6716 23.5 33.5C23.5 34.3284 24.1716 35 25 35Z" fill="#999999"/>
<path fill-rule="evenodd" clip-rule="evenodd" d="M23.5 16.5C23.5 15.6716 24.1716 15 25 15C25.8284 15 26.5 15.6716 26.5 16.5V27.5C26.5 28.3284 25.8284 29 25 29C24.1716 29 23.5 28.3284 23.5 27.5L23.5 16.5Z" fill="#999999"/>
</svg>
