<svg width="295" height="50" viewBox="0 0 295 50" fill="none" xmlns="http://www.w3.org/2000/svg">
<rect width="295" height="50" rx="5" fill="#FEE500"/>
<path d="M132.288 25V23.256H130.224V17.624H128.112V32.344H130.224V25H132.288ZM126.304 19.048H119.536V20.728H124.208C124.16 21.432 124.048 22.056 123.904 22.68L118.752 22.984L119.024 24.776L123.296 24.36C122.464 25.976 121.04 27.352 118.624 28.552L119.744 30.184C125.232 27.368 126.304 23.576 126.304 19.048ZM147.007 25V23.256H144.943V17.624H142.831V32.344H144.943V25H147.007ZM141.023 19.048H134.255V20.728H138.927C138.879 21.432 138.767 22.056 138.623 22.68L133.471 22.984L133.743 24.776L138.015 24.36C137.183 25.976 135.759 27.352 133.343 28.552L134.463 30.184C139.951 27.368 141.023 23.576 141.023 19.048ZM161.47 28.952H155.838V26.456C158.446 26.152 160.286 24.632 160.286 22.456C160.286 19.976 157.934 18.392 154.782 18.392C151.646 18.392 149.294 19.976 149.294 22.456C149.294 24.632 151.118 26.152 153.726 26.456V28.952H148.126V30.664H161.47V28.952ZM151.374 22.456C151.374 20.952 152.766 20.072 154.782 20.072C156.814 20.072 158.206 20.952 158.206 22.456C158.206 23.96 156.814 24.84 154.782 24.84C152.766 24.84 151.374 23.96 151.374 22.456ZM179.813 29.032H174.181V26.84H178.645V25.144H170.101V23.496H178.309V18.584H167.989V20.264H176.229V21.848H168.005V26.84H172.069V29.032H166.469V30.76H179.813V29.032ZM190.772 20.68V20.744C190.772 22.744 190.756 24.84 190.244 27.656L192.34 27.848C192.9 24.824 192.884 22.808 192.884 20.744V19H182.564V20.68H190.772ZM194.516 28.728H181.188V30.456H194.516V28.728ZM208.147 28.232V17.656H206.019V28.232H208.147ZM204.131 22.328C204.131 20.152 202.387 18.584 200.131 18.584C197.875 18.584 196.115 20.152 196.115 22.328C196.115 24.472 197.875 26.056 200.131 26.056C202.387 26.056 204.131 24.472 204.131 22.328ZM198.179 22.328C198.179 21.112 199.043 20.408 200.131 20.408C201.235 20.408 202.067 21.112 202.067 22.328C202.067 23.544 201.235 24.232 200.131 24.232C199.043 24.232 198.179 23.544 198.179 22.328ZM208.515 30.44H200.451V27.192H198.339V32.12H208.515V30.44Z" fill="black" fill-opacity="0.85"/>
<path fill-rule="evenodd" clip-rule="evenodd" d="M98 31.1176C102.694 31.1176 106.5 27.9573 106.5 24.0588C106.5 20.1603 102.694 17 98 17C93.3056 17 89.5 20.1603 89.5 24.0588C89.5 26.4864 90.9756 28.6278 93.2227 29.8981L92.3333 33L95.4367 30.791C96.2455 31.0032 97.1067 31.1176 98 31.1176Z" fill="black"/>
</svg>
