<svg width="295" height="50" viewBox="0 0 295 50" fill="none" xmlns="http://www.w3.org/2000/svg">
<rect width="295" height="50" rx="5" fill="black"/>
<path d="M98.2375 19.8846C99.125 19.8846 100.238 19.3048 100.9 18.5318C101.5 17.8312 101.938 16.8528 101.938 15.8744C101.938 15.7416 101.925 15.6087 101.9 15.5C100.913 15.5362 99.725 16.1402 99.0125 16.9495C98.45 17.5655 97.9375 18.5318 97.9375 19.5223C97.9375 19.6672 97.9625 19.8121 97.975 19.8605C98.0375 19.8725 98.1375 19.8846 98.2375 19.8846ZM95.1125 34.5C96.325 34.5 96.8625 33.7149 98.375 33.7149C99.9125 33.7149 100.25 34.4758 101.6 34.4758C102.925 34.4758 103.813 33.2921 104.65 32.1325C105.588 30.8039 105.975 29.4994 106 29.439C105.913 29.4148 103.375 28.4123 103.375 25.5979C103.375 23.158 105.375 22.0588 105.488 21.9743C104.163 20.1383 102.15 20.09 101.6 20.09C100.113 20.09 98.9 20.9596 98.1375 20.9596C97.3125 20.9596 96.225 20.1383 94.9375 20.1383C92.4875 20.1383 90 22.095 90 25.7912C90 28.0861 90.925 30.514 92.0625 32.0842C93.0375 33.4129 93.8875 34.5 95.1125 34.5Z" fill="white"/>
<path d="M125.008 27.96L125.84 31H128.32L124.512 19.16H121.728L117.936 31H120.336L121.168 27.96H125.008ZM124.496 26.12H121.68L122.032 24.824C122.4 23.592 122.736 22.248 123.04 20.952H123.104C123.472 22.232 123.776 23.592 124.144 24.824L124.496 26.12ZM129.514 22.04V34.44H131.85V31.72L131.786 30.248C132.474 30.872 133.226 31.224 134.01 31.224C135.978 31.224 137.818 29.448 137.818 26.376C137.818 23.624 136.506 21.816 134.298 21.816C133.338 21.816 132.41 22.328 131.658 22.968H131.594L131.434 22.04H129.514ZM133.482 29.288C132.986 29.288 132.426 29.112 131.85 28.616V24.68C132.474 24.056 133.002 23.752 133.626 23.752C134.858 23.752 135.402 24.68 135.402 26.408C135.402 28.392 134.57 29.288 133.482 29.288ZM139.811 22.04V34.44H142.147V31.72L142.083 30.248C142.771 30.872 143.523 31.224 144.307 31.224C146.275 31.224 148.115 29.448 148.115 26.376C148.115 23.624 146.803 21.816 144.595 21.816C143.635 21.816 142.707 22.328 141.955 22.968H141.891L141.731 22.04H139.811ZM143.779 29.288C143.283 29.288 142.723 29.112 142.147 28.616V24.68C142.771 24.056 143.299 23.752 143.923 23.752C145.155 23.752 145.699 24.68 145.699 26.408C145.699 28.392 144.867 29.288 143.779 29.288ZM150.108 31H152.444V18.232H150.108V31ZM159.043 31.224C160.195 31.224 161.283 30.856 162.179 30.232L161.379 28.792C160.739 29.192 160.115 29.416 159.363 29.416C158.019 29.416 157.075 28.648 156.883 27.176H162.403C162.467 26.968 162.515 26.536 162.515 26.104C162.515 23.624 161.235 21.816 158.771 21.816C156.643 21.816 154.595 23.64 154.595 26.536C154.595 29.48 156.547 31.224 159.043 31.224ZM160.499 25.624H156.851C157.027 24.328 157.859 23.64 158.803 23.64C159.955 23.64 160.499 24.408 160.499 25.624ZM180.845 29.032H175.213V26.84H179.677V25.144H171.133V23.496H179.341V18.584H169.021V20.264H177.261V21.848H169.037V26.84H173.101V29.032H167.501V30.76H180.845V29.032ZM191.803 20.68V20.744C191.803 22.744 191.787 24.84 191.275 27.656L193.371 27.848C193.931 24.824 193.915 22.808 193.915 20.744V19H183.595V20.68H191.803ZM195.547 28.728H182.219V30.456H195.547V28.728ZM209.178 28.232V17.656H207.05V28.232H209.178ZM205.162 22.328C205.162 20.152 203.418 18.584 201.162 18.584C198.906 18.584 197.146 20.152 197.146 22.328C197.146 24.472 198.906 26.056 201.162 26.056C203.418 26.056 205.162 24.472 205.162 22.328ZM199.21 22.328C199.21 21.112 200.074 20.408 201.162 20.408C202.266 20.408 203.098 21.112 203.098 22.328C203.098 23.544 202.266 24.232 201.162 24.232C200.074 24.232 199.21 23.544 199.21 22.328ZM209.546 30.44H201.482V27.192H199.37V32.12H209.546V30.44Z" fill="white" fill-opacity="0.85"/>
</svg>
