<svg width="20" height="20" viewBox="0 0 20 20" fill="none" xmlns="http://www.w3.org/2000/svg">
<path fill-rule="evenodd" clip-rule="evenodd" d="M10 19C5.02944 19 1 14.9706 1 10C1 5.02944 5.02944 1 10 1C14.9706 1 19 5.02944 19 10C19 14.9706 14.9706 19 10 19Z" fill="#CCCCCC"/>
<path fill-rule="evenodd" clip-rule="evenodd" d="M6.57576 12.5757C6.34145 12.81 6.34145 13.1899 6.57576 13.4243C6.81007 13.6586 7.18997 13.6586 7.42429 13.4243L10 10.8485L12.5758 13.4243C12.8101 13.6586 13.19 13.6586 13.4243 13.4243C13.6586 13.1899 13.6586 12.81 13.4243 12.5757L10.8486 9.99999L13.4243 7.42426C13.6586 7.18994 13.6586 6.81004 13.4243 6.57573C13.19 6.34142 12.8101 6.34142 12.5758 6.57573L10 9.15147L7.42429 6.57573C7.18997 6.34142 6.81007 6.34142 6.57576 6.57573C6.34145 6.81004 6.34145 7.18994 6.57576 7.42426L9.1515 9.99999L6.57576 12.5757Z" fill="white"/>
</svg>
