<svg width="20" height="20" viewBox="0 0 20 20" fill="none" xmlns="http://www.w3.org/2000/svg">
<path fill-rule="evenodd" clip-rule="evenodd" d="M5.02672 4.17575C4.79243 3.94142 4.41257 3.94142 4.17828 4.17575C3.94399 4.41009 3.94399 4.79003 4.17828 5.02437L9.15274 9.99991L4.17843 14.9732C3.94409 15.2075 3.94409 15.5873 4.17843 15.8216C4.41276 16.0559 4.7927 16.0559 5.02704 15.8216L10.0012 10.8485L14.9756 15.824C15.2099 16.0583 15.5897 16.0583 15.824 15.824C16.0583 15.5897 16.0583 15.2097 15.824 14.9754L10.8498 10.0001L15.8267 5.02428C16.061 4.78999 16.061 4.41014 15.8267 4.17585C15.5923 3.94156 15.2124 3.94156 14.978 4.17585L10.0014 9.15147L5.02672 4.17575Z" fill="#999999"/>
</svg>
