<svg width="24" height="24" viewBox="0 0 24 24" fill="none" xmlns="http://www.w3.org/2000/svg">
<g id="02.Element / 01.icon / 24 / like_off">
<path id="Union (Stroke) (Stroke)" fill-rule="evenodd" clip-rule="evenodd" d="M12.0026 5.71743L11.4048 5.39919C11.1746 5.27688 10.8552 5.11281 10.4982 4.94538C9.76362 4.60085 8.94178 4.27734 8.40351 4.22531C7.02431 4.09198 5.65398 4.47399 4.62892 5.54468C2.50588 7.76225 2.6956 11.3026 5.58722 14.4133C7.05795 15.9955 8.72332 17.3606 10.0258 18.3326C10.676 18.8178 11.2334 19.2033 11.6275 19.467C11.7743 19.5652 11.8984 19.6465 11.9961 19.7097C12.0954 19.6423 12.2223 19.5554 12.3728 19.4506C12.7693 19.1744 13.3296 18.7738 13.9823 18.2781C15.2898 17.2851 16.9589 15.917 18.425 14.406C21.2888 11.4544 21.5019 7.76481 19.3764 5.54468C18.3513 4.47399 16.981 4.09198 15.6018 4.22531C15.0635 4.27734 14.2417 4.60085 13.5071 4.94538C13.1501 5.11279 12.8308 5.27684 12.6005 5.39913C12.6005 5.39915 12.6006 5.39911 12.6005 5.39913L12.0026 5.71743ZM12.0375 4.33941C12.2802 4.21051 12.6179 4.03697 12.9975 3.85894C13.7222 3.51904 14.7167 3.10528 15.4863 3.03088C17.1639 2.86871 18.9203 3.33307 20.2432 4.71483C22.9523 7.54462 22.4472 11.9838 19.2862 15.2417C17.7619 16.8127 16.0407 18.2217 14.7081 19.2338C14.0402 19.741 13.4664 20.1513 13.0587 20.4353C12.8547 20.5773 12.6922 20.6879 12.58 20.7634C12.5239 20.8011 12.4804 20.8301 12.4505 20.8499L12.4162 20.8725L12.407 20.8786L12.4032 20.8811C12.1658 21.036 11.8596 21.0398 11.6181 20.8912L11.6146 20.889L11.6051 20.8832L11.5703 20.8614C11.5401 20.8425 11.4963 20.8149 11.44 20.7788C11.3273 20.7067 11.1644 20.601 10.9602 20.4643C10.5518 20.1911 9.97733 19.7937 9.30813 19.2943C7.97298 18.298 6.24596 16.8845 4.70831 15.2303C1.54925 11.8319 1.04931 7.54843 3.76212 4.71483C5.08498 3.33307 6.84139 2.86871 8.51898 3.03088C9.28862 3.10528 10.283 3.51904 11.0078 3.85894C11.3873 4.03697 11.7251 4.21051 11.9678 4.33941L12.0026 4.35798L12.0375 4.33941ZM12.117 20.0752L12.2449 19.868C12.2455 19.8683 12.246 19.8686 12.2465 19.8689M12.2449 19.868L12.2406 19.8653L12.237 19.863L12.2078 19.8448C12.208 19.8449 12.2076 19.8447 12.2078 19.8448M12.2043 19.8459C12.1595 19.8244 12.1121 19.8104 12.0638 19.804C12.0211 19.7984 11.9778 19.7987 11.9351 19.8049C11.9351 19.8049 11.9351 19.8049 11.9351 19.8049M11.7497 19.8746C11.7493 19.8748 11.7489 19.8751 11.7485 19.8754L11.8851 20.0834L11.9727 20.2169L11.9712 20.2192M12.031 20.2144L12.117 20.0752L12.1131 20.0695L12.2406 19.8653C12.2421 19.8661 12.2435 19.8671 12.2449 19.868M12.237 19.863C12.227 19.8572 12.2168 19.852 12.2065 19.8469L12.0892 20.0339L12.0028 20.1717L12.025 20.2053L12.1111 20.0664L12.237 19.863ZM12.0267 20.2079L12.1131 20.0695L12.117 20.0752M12.0243 20.2064L12.0021 20.1728L11.98 20.208L12.0023 20.242L12.0243 20.2064ZM12.0039 20.2444L12.026 20.209L12.0039 20.2444ZM12.0011 20.2438L11.9788 20.21L11.9741 20.2174L11.9964 20.2515L12.0011 20.2438ZM11.998 20.2539L12.0027 20.2463L11.998 20.2539ZM11.9736 20.2183L11.9964 20.2515L11.9736 20.2183ZM11.9732 20.216L11.9779 20.2086L11.8901 20.0756L11.7551 19.8712C11.7533 19.8723 11.7515 19.8734 11.7497 19.8746M11.8916 20.0732L11.7579 19.8695L11.8916 20.0732ZM11.7579 19.8695C11.7682 19.8631 11.7787 19.8572 11.7894 19.8517L11.7579 19.8695ZM11.9134 20.039L12.0011 20.1714L11.9134 20.039ZM12.2043 19.8459L12.0018 20.1702L12.2043 19.8459ZM11.9732 20.216L11.8857 20.0824L11.9732 20.216ZM12.031 20.2144L12.0267 20.2079L12.031 20.2144Z" fill="red"/>
</g>
</svg>
