<svg width="50" height="50" viewBox="0 0 50 50" fill="none" xmlns="http://www.w3.org/2000/svg">
<path fill-rule="evenodd" clip-rule="evenodd" d="M37.5 23.9583H12.5C12.1347 23.9583 11.8373 24.0935 11.6598 24.2515C11.5016 24.3923 11.4583 24.5221 11.4583 24.6528V42.0139C11.4583 42.1446 11.5016 42.2743 11.6598 42.4152C11.8373 42.5732 12.1347 42.7083 12.5 42.7083H37.5C37.8653 42.7083 38.1627 42.5732 38.3401 42.4152C38.4984 42.2743 38.5416 42.1446 38.5416 42.0139V24.6528C38.5416 24.5221 38.4984 24.3923 38.3401 24.2515C38.1627 24.0935 37.8653 23.9583 37.5 23.9583ZM37.5 20.8333H12.5C10.2742 20.8333 8.33331 22.4508 8.33331 24.6528V42.0139C8.33331 44.2159 10.2742 45.8333 12.5 45.8333H37.5C39.7257 45.8333 41.6666 44.2159 41.6666 42.0139V24.6528C41.6666 22.4508 39.7257 20.8333 37.5 20.8333Z" fill="black"/>
<path fill-rule="evenodd" clip-rule="evenodd" d="M15.1041 12.5C15.1041 7.03469 19.5346 2.60417 25 2.60417C30.4653 2.60417 34.8958 7.03469 34.8958 12.5V20.8333C34.8958 21.6963 34.1962 22.3958 33.3333 22.3958C32.4704 22.3958 31.7708 21.6963 31.7708 20.8333V12.5C31.7708 8.76058 28.7394 5.72917 25 5.72917C21.2605 5.72917 18.2291 8.76058 18.2291 12.5V20.8333C18.2291 21.6963 17.5296 22.3958 16.6666 22.3958C15.8037 22.3958 15.1041 21.6963 15.1041 20.8333V12.5Z" fill="black"/>
<path fill-rule="evenodd" clip-rule="evenodd" d="M25 35.4167C26.1506 35.4167 27.0833 34.4839 27.0833 33.3333C27.0833 32.1827 26.1506 31.25 25 31.25C23.8494 31.25 22.9166 32.1827 22.9166 33.3333C22.9166 34.4839 23.8494 35.4167 25 35.4167Z" fill="black"/>
</svg>
