<svg width="24" height="24" viewBox="0 0 24 24" fill="none" xmlns="http://www.w3.org/2000/svg">
<path d="M15 15H19L22 22H2L5 15H9H15ZM13 8C13 8.26522 12.8946 8.51957 12.7071 8.70711C12.5196 8.89464 12.2652 9 12 9C11.7348 9 11.4804 8.89464 11.2929 8.70711C11.1054 8.51957 11 8.26522 11 8C11 7.73478 11.1054 7.48043 11.2929 7.29289C11.4804 7.10536 11.7348 7 12 7C12.2652 7 12.5196 7.10536 12.7071 7.29289C12.8946 7.48043 13 7.73478 13 8ZM6 8C6 13 12 18 12 18C12 18 18 13 18 8C18 4.583 15.314 2 12 2C8.686 2 6 4.583 6 8Z" stroke="black" stroke-width="2"/>
</svg>
