<svg width="24" height="24" viewBox="0 0 24 24" fill="none" xmlns="http://www.w3.org/2000/svg">
<path d="M17.75 2.00101C18.3201 2.00094 18.869 2.2173 19.2858 2.60638C19.7025 2.99545 19.956 3.52822 19.995 4.09701L20 4.25001V19.748C20.0001 20.3181 19.7837 20.867 19.3946 21.2838C19.0056 21.7005 18.4728 21.954 17.904 21.993L17.75 21.998H6.25C5.67987 21.9981 5.13098 21.7817 4.71425 21.3926C4.29751 21.0036 4.04402 20.4708 4.005 19.902L4 19.75V4.25101C3.99993 3.68088 4.2163 3.13199 4.60537 2.71525C4.99444 2.29852 5.52721 2.04503 6.096 2.00601L6.25 2.00101H17.75ZM17.75 3.50101H6.25C6.06876 3.50101 5.89366 3.56665 5.75707 3.68577C5.62048 3.8049 5.53165 3.96945 5.507 4.14901L5.5 4.25101V19.749C5.5 20.129 5.782 20.443 6.148 20.492L6.25 20.499H17.75C17.9312 20.499 18.1063 20.4334 18.2429 20.3142C18.3795 20.1951 18.4684 20.0306 18.493 19.851L18.5 19.749V4.25101C18.5 4.06977 18.4344 3.89467 18.3152 3.75808C18.1961 3.62149 18.0316 3.53266 17.852 3.50801L17.75 3.50001V3.50101Z" fill="black"/>
<path d="M7 15.75C7 15.5511 7.07902 15.3603 7.21967 15.2197C7.36032 15.079 7.55109 15 7.75 15H16.25C16.4489 15 16.6397 15.079 16.7803 15.2197C16.921 15.3603 17 15.5511 17 15.75C17 15.9489 16.921 16.1397 16.7803 16.2803C16.6397 16.421 16.4489 16.5 16.25 16.5H7.75C7.55109 16.5 7.36032 16.421 7.21967 16.2803C7.07902 16.1397 7 15.9489 7 15.75Z" fill="black"/>
<path d="M7 7.75C7 7.55109 7.07902 7.36032 7.21967 7.21967C7.36032 7.07902 7.55109 7 7.75 7H16.25C16.4489 7 16.6397 7.07902 16.7803 7.21967C16.921 7.36032 17 7.55109 17 7.75C17 7.94891 16.921 8.13968 16.7803 8.28033C16.6397 8.42098 16.4489 8.5 16.25 8.5H7.75C7.55109 8.5 7.36032 8.42098 7.21967 8.28033C7.07902 8.13968 7 7.94891 7 7.75Z" fill="black"/>
<path d="M7 11.75C7 11.5511 7.07902 11.3603 7.21967 11.2197C7.36032 11.079 7.55109 11 7.75 11H16.25C16.3485 11 16.446 11.0194 16.537 11.0571C16.628 11.0948 16.7107 11.15 16.7803 11.2197C16.85 11.2893 16.9052 11.372 16.9429 11.463C16.9806 11.554 17 11.6515 17 11.75C17 11.8485 16.9806 11.946 16.9429 12.037C16.9052 12.128 16.85 12.2107 16.7803 12.2803C16.7107 12.35 16.628 12.4052 16.537 12.4429C16.446 12.4806 16.3485 12.5 16.25 12.5H7.75C7.55109 12.5 7.36032 12.421 7.21967 12.2803C7.07902 12.1397 7 11.9489 7 11.75Z" fill="black"/>
</svg>
